<svg xmlns="http://www.w3.org/2000/svg" width="82" height="60" viewBox="0 0 82 60">
  <g fill="#202D40" fill-rule="evenodd">
    <path d="M23.0613345 34.2183651C22.2360805 34.2183651 21.5669666 35.0210515 21.5669666 36.010732 21.5669666 37.0008207 22.2360805 37.8035071 23.0613345 37.8035071 23.8865885 37.8035071 24.5557024 37.0008207 24.5557024 36.010732 24.5557024 35.0210515 23.8865885 34.2183651 23.0613345 34.2183651M58.5537565 34.2183651C57.7285025 34.2183651 57.0593887 35.0210515 57.0593887 36.010732 57.0593887 37.0008207 57.7285025 37.8035071 58.5537565 37.8035071 59.3790106 37.8035071 60.0481244 37.0008207 60.0481244 36.010732 60.0481244 35.0210515 59.3790106 34.2183651 58.5537565 34.2183651"/>
    <path d="M76.0431691,35.8066426 C74.6957252,36.2798068 73.3602023,35.8547552 73.0602576,34.8568529 C72.7603129,33.8589507 73.6093871,32.6665216 74.9568309,32.1933574 C76.3042748,31.7201932 77.6397977,32.1452448 77.9397424,33.1431471 C78.2396871,34.1410493 77.3906129,35.3334784 76.0431691,35.8066426 M41.5,56 C27.4106497,55.978508 16,49.4807527 16,40.1786465 C16,39.9837855 16.0073209,39.7907154 16.016838,39.5980036 C16.0201323,39.5346022 16.0234267,39.4712007 16.0278192,39.4077992 C16.0362382,39.2763397 16.0486837,39.1455965 16.0618612,39.0148534 C16.0797973,38.8400516 16.1006617,38.6652498 16.1270168,38.4918808 C16.1295791,38.4746872 16.1317754,38.4574936 16.1343377,38.4402999 C16.4180208,36.6120451 17.1442495,33.8220222 18.2409135,32.2140606 C20.875689,28.484478 25.5753115,26 30.9367392,26 C35.0642369,26 38.7967745,27.4750693 41.5,29.8538781 C44.2035915,27.4750693 47.9361291,26 52.0632608,26 C57.4250545,26 62.124311,28.484478 64.7590865,32.2140606 C65.8561165,33.8220222 66.5819792,36.6120451 66.8656623,38.4402999 C66.8682246,38.4574936 66.8707869,38.4746872 66.8733492,38.4918808 C66.8993383,38.6652498 66.9205687,38.8400516 66.9385048,39.0148534 C66.9513163,39.1455965 66.9637618,39.2763397 66.9725468,39.4077992 C66.9765733,39.4712007 66.9802337,39.5346022 66.9835281,39.5980036 C66.9930452,39.7907154 67,39.9837855 67,40.1786465 C67,49.4807527 55.5897164,55.978508 41.5,56 M8.93973779,34.8568529 C8.63977003,35.8547552 7.30414435,36.2798068 5.95698144,35.8066426 C4.60943395,35.3334784 3.76029444,34.1410493 4.06026221,33.1431471 C4.36022997,32.1452448 5.69585565,31.7201932 7.04301856,32.1933574 C8.39056605,32.6665216 9.23970556,33.8589507 8.93973779,34.8568529 M75.9050523,24.9545824 C73.7131956,24.9545824 71.7921687,26.3284876 70.7183526,28.3889842 C67.0641617,20.5590971 59.4626552,13.304921 50.0684094,10.3180135 C44.9993983,8.31927765 41.4398698,4.48325056 40.9998173,-5.68434189e-14 C40.5597647,4.48325056 37.0002362,8.31927765 31.9312251,10.3180135 C22.5369793,13.304921 14.9354728,20.5590971 11.2816474,28.3889842 C10.2074658,26.3284876 8.28680439,24.9545824 6.09494774,24.9545824 C2.72876468,24.9545824 0,28.1928668 0,32.187088 C0,36.1813093 2.72876468,39.4195937 6.09494774,39.4195937 C7.11869136,39.4195937 8.08285975,39.1183747 8.93007065,38.5892551 C9.21954046,51.5586456 23.4594816,59.9776072 40.9998173,60 C58.5401529,59.9776072 72.780094,51.5586456 73.0699294,38.5892551 C73.9167748,39.1183747 74.8809431,39.4195937 75.9050523,39.4195937 C79.2712353,39.4195937 82,36.1813093 82,32.187088 C82,28.1928668 79.2712353,24.9545824 75.9050523,24.9545824"/>
  </g>
</svg>
